<?xml version="1.0" encoding="UTF-8" standalone="no"?><!DOCTYPE svg PUBLIC "-//W3C//DTD SVG 1.1//EN" "http://www.w3.org/Graphics/SVG/1.1/DTD/svg11.dtd"><svg width="100%" height="100%" viewBox="0 0 50 50" version="1.1" xmlns="http://www.w3.org/2000/svg" xmlns:xlink="http://www.w3.org/1999/xlink" xml:space="preserve" style="fill-rule:evenodd;clip-rule:evenodd;stroke-linejoin:round;stroke-miterlimit:1.41421;"><path id="Resize-Plus-Icon" d="M31.04,49.481l7.05,-7.02l-8.182,-8.183c-1.207,-1.206 -1.207,-3.162 0,-4.369c1.207,-1.206 3.163,-1.206 4.37,0l8.192,8.192l7.011,-6.981l0,18.361l-18.441,0Zm3.238,-29.389c-1.207,1.206 -3.163,1.206 -4.37,0c-1.207,-1.207 -1.207,-3.163 0,-4.369l8.182,-8.184l-7.05,-7.02l18.441,0l0,18.361l-7.011,-6.98l-8.192,8.192Zm-22.401,22.389l7.031,7l-18.389,0l0,-18.308l6.991,6.96l8.163,-8.163c1.203,-1.203 3.154,-1.203 4.358,0c1.203,1.204 1.203,3.155 0,4.357l-8.154,8.154Zm3.796,-22.45l-8.163,-8.163l-6.991,6.96l0,-18.309l18.389,0l-7.031,7l8.154,8.154c1.203,1.203 1.203,3.154 0,4.358c-1.204,1.203 -3.155,1.203 -4.358,0Z" style="fill:#8393a7;"/></svg>